<svg xmlns="http://www.w3.org/2000/svg" version="1.1" xmlns:xlink="http://www.w3.org/1999/xlink" xmlns:svgjs="http://svgjs.dev/svgjs" 
width="108.7612359841165" height="104.915625" viewBox="0 0 1000 625"><g transform="matrix(1,0,0,1,0,0)"><svg viewBox="0 0 512 320" data-background-color="#ffffff" preserveAspectRatio="xMidYMid meet" height="625" width="1000" xmlns="http://www.w3.org/2000/svg" xmlns:xlink="http://www.w3.org/1999/xlink"><g id="tight-bounds" transform="matrix(1,0,0,1,0,0)"><svg viewBox="0 0 512 320" height="320" width="512"><g><svg></svg></g><g><svg viewBox="0 0 512 320" height="320" width="512"><g><path xmlns="http://www.w3.org/2000/svg" d="M96 160c0-88.366 71.634-160 160-160 88.366 0 160 71.634 160 160 0 88.366-71.634 160-160 160-88.366 0-160-71.634-160-160zM256 291.142c72.428 0 131.142-58.714 131.142-131.142 0-72.428-58.714-131.142-131.142-131.142-72.428 0-131.142 58.714-131.142 131.142 0 72.428 58.714 131.142 131.142 131.142z" fill="#ff0000" fill-rule="nonzero" stroke="none" stroke-width="1" stroke-linecap="butt" stroke-linejoin="miter" stroke-miterlimit="10" stroke-dasharray="" stroke-dashoffset="0" font-family="none" font-weight="none" font-size="none" text-anchor="none" style="mix-blend-mode: normal" data-fill-palette-color="tertiary"></path></g><g transform="matrix(1,0,0,1,190.33333333333331,80)"><svg viewBox="0 0 131.33333333333334 160" height="160" width="131.33333333333334"><g><svg viewBox="0 0 131.33333333333334 160" height="160" width="131.33333333333334"><g><svg viewBox="0 0 131.33333333333334 160" height="160" width="131.33333333333334"><g id="textblocktransform"><svg viewBox="0 0 131.33333333333334 160" height="160" width="131.33333333333334" id="textblock"><g><svg viewBox="0 0 131.33333333333334 160" height="160" width="131.33333333333334"><g transform="matrix(1,0,0,1,0,0)"><svg width="131.33333333333334" viewBox="-1.2999999523162842 -36 29.549999237060547 36" height="160" data-palette-color="#ff0000"><path d="M28.25 0L18.75 0 19.05-7.85 10.7-7.85 8.25 0-1.3 0 11.55-36 28.05-36 28.25 0ZM19.85-27.25L16.7-27.25 12.75-14.55 19.3-14.55 19.85-27.25Z" opacity="1" transform="matrix(1,0,0,1,0,0)" fill="#ff0000" class="undefined-text-0" data-fill-palette-color="primary" id="text-0"></path></svg></g></svg></g></svg></g></svg></g></svg></g></svg></g></svg></g><defs></defs></svg><rect width="512" height="320" fill="none" stroke="none" visibility="hidden"></rect></g></svg></g></svg>